<svg width="24" height="24" viewBox="0 0 24 24" fill="none" xmlns="http://www.w3.org/2000/svg">
<path d="M16 10.8945C14.7926 10.8945 12.6073 11.4301 10.71 12.6484C8.77983 13.8879 7 15.9398 7 19L9 19C9 16.8399 10.2202 15.3391 11.79 14.3311C13.3927 13.3019 15.2074 12.8945 16 12.8945L16 10.8945Z" fill="#76491F"/>
<path d="M16 12.8945C14.7673 12.8945 12.5674 12.2911 10.6689 10.9365C8.72673 9.55069 7 7.30132 7 4L9 4C9 6.49893 10.2733 8.19715 11.8311 9.30859C13.4325 10.4512 15.2327 10.8945 16 10.8945L16 12.8945Z" fill="#76491F"/>
</svg>
