<svg width="32" height="32" viewBox="0 0 32 32" fill="none" xmlns="http://www.w3.org/2000/svg">
<g clip-path="url(#clip0_5861_7375)">
<path d="M5.33301 14.9302C6.90414 14.9302 9.77319 15.7256 12.2549 17.5317C14.7818 19.3708 17 22.3299 17 26.6665L15 26.6665C15 23.1149 13.2177 20.7062 11.0781 19.1489C8.89315 17.5588 6.42854 16.9302 5.33301 16.9302L5.33301 14.9302Z" fill="#AD7B4C"/>
<path d="M5.33301 16.9297C6.93312 16.9297 9.81557 16.0342 12.2949 14.0293C14.8247 11.9836 17 8.7305 17 4L15 4C15 8.03446 13.174 10.7466 11.0371 12.4746C8.84995 14.243 6.39946 14.9297 5.33301 14.9297L5.33301 16.9297Z" fill="#AD7B4C"/>
<path d="M29.333 15V17H8V15H29.333Z" fill="#AD7B4C"/>
</g>
<defs>
<clipPath id="clip0_5861_7375">
<rect width="32" height="32" fill="white" transform="matrix(-1 0 0 1 32 0)"/>
</clipPath>
</defs>
</svg>
