<svg width="24" height="24" viewBox="0 0 24 24" fill="none" xmlns="http://www.w3.org/2000/svg">
<path d="M8 10.8944C9.20739 10.8944 11.3927 11.43 13.29 12.6483C15.2202 13.8878 17 15.9397 17 18.9999L15 18.9999C15 16.8398 13.7798 15.339 12.21 14.3309C10.6073 13.3018 8.79257 12.8944 8 12.8944L8 10.8944Z" fill="#76491F"/>
<path d="M8 12.8945C9.23271 12.8945 11.4326 12.2911 13.3311 10.9365C15.2733 9.55069 17 7.30132 17 4L15 4C15 6.49893 13.7267 8.19715 12.1689 9.30859C10.5675 10.4512 8.76725 10.8945 8 10.8945L8 12.8945Z" fill="#76491F"/>
</svg>
