<svg width="25" height="24" viewBox="0 0 25 24" fill="none" xmlns="http://www.w3.org/2000/svg">
<path fill-rule="evenodd" clip-rule="evenodd" d="M12.4995 1.99902C9.78353 1.99902 9.44297 2.01054 8.37636 2.0592C7.31188 2.10775 6.58495 2.27683 5.94881 2.52402C5.29119 2.77959 4.73349 3.12155 4.17753 3.67751C3.62157 4.23351 3.27962 4.79122 3.02406 5.44884C2.77682 6.08495 2.60779 6.81193 2.5592 7.87638C2.51054 8.94305 2.49902 9.28361 2.49902 11.9996C2.49902 14.7156 2.51054 15.0562 2.5592 16.1228C2.60779 17.1873 2.77682 17.9143 3.02406 18.5504C3.27962 19.208 3.62157 19.7657 4.17753 20.3217C4.73349 20.8777 5.29119 21.2196 5.94881 21.4752C6.58495 21.7224 7.31188 21.8915 8.37636 21.94C9.44297 21.9887 9.78353 22.0002 12.4995 22.0002C15.2155 22.0002 15.556 21.9887 16.6227 21.94C17.6872 21.8915 18.4141 21.7224 19.0502 21.4752C19.7078 21.2196 20.2656 20.8777 20.8215 20.3217C21.3775 19.7657 21.7194 19.208 21.975 18.5504C22.2222 17.9143 22.3912 17.1873 22.4398 16.1228C22.4885 15.0562 22.5 14.7156 22.5 11.9996C22.5 9.28361 22.4885 8.94305 22.4398 7.87638C22.3912 6.81193 22.2222 6.08495 21.975 5.44884C21.7194 4.79122 21.3775 4.23351 20.8215 3.67751C20.2656 3.12155 19.7078 2.77959 19.0502 2.52402C18.4141 2.27683 17.6872 2.10775 16.6227 2.0592C15.556 2.01054 15.2155 1.99902 12.4995 1.99902ZM12.4994 3.80093C15.1696 3.80093 15.4859 3.81113 16.5404 3.85925C17.5155 3.90371 18.045 4.06663 18.3974 4.20358C18.8642 4.385 19.1973 4.60171 19.5473 4.95168C19.8972 5.30161 20.1139 5.63475 20.2953 6.10155C20.4323 6.45395 20.5952 6.98347 20.6397 7.95851C20.6878 9.01304 20.698 9.32934 20.698 11.9996C20.698 14.6699 20.6878 14.9862 20.6397 16.0407C20.5952 17.0157 20.4323 17.5453 20.2953 17.8977C20.1139 18.3645 19.8972 18.6976 19.5473 19.0475C19.1973 19.3975 18.8642 19.6142 18.3974 19.7956C18.045 19.9326 17.5155 20.0955 16.5404 20.14C15.4861 20.1881 15.1698 20.1983 12.4994 20.1983C9.82898 20.1983 9.51271 20.1881 8.45836 20.14C7.48332 20.0955 6.95376 19.9326 6.60138 19.7956C6.13462 19.6142 5.80144 19.3975 5.45151 19.0475C5.10158 18.6976 4.88484 18.3645 4.70342 17.8977C4.56651 17.5453 4.40359 17.0157 4.35909 16.0407C4.31098 14.9862 4.30082 14.6699 4.30082 11.9996C4.30082 9.32934 4.31098 9.01304 4.35909 7.95851C4.40359 6.98347 4.56651 6.45395 4.70342 6.10155C4.88484 5.63475 5.10158 5.30161 5.45151 4.95168C5.80144 4.60171 6.13462 4.385 6.60138 4.20358C6.95376 4.06663 7.48332 3.90371 8.45832 3.85925C9.51287 3.81113 9.82913 3.80093 12.4994 3.80093Z" fill="white"/>
<path fill-rule="evenodd" clip-rule="evenodd" d="M12.4988 15.3332C10.6578 15.3332 9.16527 13.8408 9.16527 11.9997C9.16527 10.1587 10.6578 8.66619 12.4988 8.66619C14.3398 8.66619 15.8322 10.1587 15.8322 11.9997C15.8322 13.8408 14.3398 15.3332 12.4988 15.3332ZM12.4987 6.86426C9.66249 6.86426 7.36328 9.16345 7.36328 11.9997C7.36328 14.8359 9.66249 17.1351 12.4987 17.1351C15.3349 17.1351 17.6341 14.8359 17.6341 11.9997C17.6341 9.16345 15.3349 6.86426 12.4987 6.86426Z" fill="white"/>
<path fill-rule="evenodd" clip-rule="evenodd" d="M19.0378 6.66148C19.0378 7.32426 18.5005 7.86153 17.8378 7.86153C17.175 7.86153 16.6377 7.32426 16.6377 6.66148C16.6377 5.99869 17.175 5.46143 17.8378 5.46143C18.5005 5.46143 19.0378 5.99869 19.0378 6.66148Z" fill="white"/>
</svg>
