<svg width="25" height="25" viewBox="0 0 25 25" fill="none" xmlns="http://www.w3.org/2000/svg">
<g clip-path="url(#clip0_6468_1762)">
<path d="M12.49 2.34521C6.97 2.34521 2.5 6.82521 2.5 12.3452C2.5 17.8652 6.97 22.3452 12.49 22.3452C18.02 22.3452 22.5 17.8652 22.5 12.3452C22.5 6.82521 18.02 2.34521 12.49 2.34521ZM12.5 20.3452C8.08 20.3452 4.5 16.7652 4.5 12.3452C4.5 7.92521 8.08 4.34521 12.5 4.34521C16.92 4.34521 20.5 7.92521 20.5 12.3452C20.5 16.7652 16.92 20.3452 12.5 20.3452ZM13 7.34521H11.5V13.3452L16.75 16.4952L17.5 15.2652L13 12.5952V7.34521Z" fill="#C1BFBD"/>
</g>
<defs>
<clipPath id="clip0_6468_1762">
<rect width="24" height="24" fill="white" transform="translate(0.5 0.345215)"/>
</clipPath>
</defs>
</svg>
